<svg xmlns="http://www.w3.org/2000/svg" width="500" height="500" viewBox="0 0 500 500">
<g>
<path d="M 234.05 319.90 C235.25,325.14 235.70,329.36 235.24,331.12 C234.53,333.82 234.29,333.58 229.50,325.37 C224.77,317.26 217.58,305.68 214.78,301.66 C187.68,262.72 161.02,237.58 130.50,222.22 C110.52,212.17 95.21,207.90 66.50,204.37 C44.12,201.62 29.89,198.99 26.16,196.93 L 22.50 194.91 L 27.50 195.48 C30.25,195.79 49.15,196.47 69.50,196.99 C89.85,197.51 107.85,198.21 109.50,198.54 C111.15,198.88 117.45,200.05 123.50,201.15 C143.10,204.73 162.84,212.43 173.76,220.75 C176.10,222.54 178.37,224.00 178.79,224.00 C180.56,224.00 197.07,240.40 202.60,247.66 C218.03,267.90 226.66,287.72 234.05,319.90 ZM 260.79 331.75 C258.27,336.64 257.43,337.00 256.76,333.50 C256.49,332.12 256.63,331.00 257.06,331.00 C258.18,331.00 259.76,325.62 261.02,317.51 C262.03,311.07 263.01,307.34 266.55,296.50 C281.71,250.05 313.80,216.73 354.50,205.19 C375.97,199.11 386.35,197.95 427.50,197.02 C446.75,196.59 463.17,196.00 464.00,195.71 C464.83,195.41 467.07,194.90 468.99,194.56 C472.09,194.02 472.31,194.12 470.97,195.46 C468.91,197.52 455.50,200.82 444.00,202.11 C409.57,205.96 395.76,208.90 375.55,216.71 C335.69,232.12 303.02,263.21 268.59,318.50 C265.51,323.45 262.00,329.41 260.79,331.75 ZM 192.95 283.04 C196.91,288.68 197.01,288.99 194.81,288.88 C193.54,288.82 190.70,288.10 188.50,287.29 C185.25,286.08 180.30,285.90 162.00,286.30 C117.00,287.28 100.77,283.78 78.82,268.36 C71.11,262.94 58.04,249.82 59.78,249.24 C60.30,249.07 65.62,250.14 71.61,251.62 C82.02,254.18 84.08,254.34 118.00,255.00 C150.05,255.63 154.04,255.89 159.00,257.71 C174.25,263.29 184.41,270.87 192.95,283.04 ZM 333.78 286.27 C312.42,285.80 310.02,285.92 304.72,287.73 C301.54,288.82 298.73,289.37 298.47,288.96 C297.71,287.72 306.24,276.88 312.63,270.98 C318.52,265.55 326.69,260.90 336.50,257.41 C340.77,255.88 346.59,255.53 376.50,254.97 C409.86,254.35 412.03,254.20 422.88,251.62 C429.13,250.13 434.50,249.16 434.80,249.46 C435.87,250.54 429.21,257.62 420.43,264.74 C410.61,272.70 396.79,280.20 387.50,282.61 C376.04,285.59 358.24,286.80 333.78,286.27 ZM 281.50 331.21 C279.85,331.81 275.01,334.03 270.75,336.15 C266.49,338.28 263.00,339.52 263.00,338.91 C263.00,337.15 268.61,327.40 275.01,318.07 C283.70,305.38 296.77,295.20 307.50,292.76 C309.70,292.26 325.45,291.52 342.50,291.10 C367.47,290.50 374.82,290.00 380.29,288.55 C384.02,287.55 387.39,287.07 387.79,287.47 C388.59,288.31 377.57,298.80 371.50,302.98 C365.69,306.99 345.25,317.63 340.00,319.39 C333.38,321.60 328.12,322.65 312.00,324.98 C297.48,327.08 287.12,329.19 281.50,331.21 ZM 228.22 331.80 C230.43,335.81 232.07,339.24 231.87,339.40 C231.67,339.57 227.12,337.60 221.77,335.02 C211.32,329.98 200.37,327.27 179.00,324.44 C172.68,323.60 164.23,322.03 160.23,320.95 C152.60,318.90 134.99,310.53 125.46,304.43 C119.17,300.41 106.18,288.50 107.09,287.59 C107.41,287.26 111.91,287.89 117.09,288.98 C124.90,290.63 130.42,290.97 149.53,290.98 C185.91,291.01 194.37,292.84 206.47,303.29 C215.53,311.12 220.29,317.36 228.22,331.80 ZM 161.45 252.08 C160.75,253.22 160.38,253.18 155.80,251.50 C149.49,249.18 144.51,248.85 111.50,248.60 C80.60,248.35 79.17,248.25 69.81,245.74 C64.48,244.31 58.10,242.25 55.64,241.17 C50.54,238.91 41.70,232.56 38.00,228.50 L 35.50 225.76 L 39.00 226.31 C40.92,226.62 46.10,227.60 50.50,228.49 C57.64,229.94 61.08,229.98 82.40,228.87 C112.45,227.31 122.60,228.19 134.85,233.44 C146.78,238.54 162.85,249.81 161.45,252.08 ZM 342.50 250.33 C339.75,251.10 336.76,252.04 335.85,252.43 C331.96,254.10 333.41,250.79 338.60,246.17 C344.90,240.56 361.44,231.99 370.00,229.91 C375.73,228.51 391.25,228.25 425.00,228.98 C441.48,229.34 444.29,229.16 450.75,227.31 C461.04,224.36 460.43,226.46 448.29,235.79 C443.07,239.81 432.02,244.28 421.50,246.63 C414.88,248.10 407.82,248.46 380.50,248.68 C356.15,248.88 346.19,249.31 342.50,250.33 ZM 241.52 85.25 C241.18,87.31 240.59,89.00 240.20,89.00 C239.82,89.00 238.28,87.07 236.79,84.71 C233.53,79.55 231.00,70.37 231.00,63.72 C231.00,58.16 234.84,45.91 238.70,39.11 C241.29,34.55 246.80,28.00 248.03,28.00 C248.38,28.00 250.23,30.36 252.15,33.25 C262.92,49.51 264.49,63.85 257.34,80.75 C253.78,89.17 251.40,89.35 250.52,81.25 C249.40,70.94 247.68,61.92 246.72,61.33 C245.21,60.39 244.03,63.16 244.02,67.70 C244.01,70.01 243.58,74.06 243.06,76.70 C242.55,79.34 241.86,83.19 241.52,85.25 ZM 115.92 223.36 C114.98,224.17 58.02,224.64 52.00,223.89 C45.02,223.01 31.61,217.07 26.03,212.38 C22.89,209.73 15.43,199.24 16.16,198.51 C16.39,198.28 18.81,199.20 21.54,200.55 C29.01,204.25 41.46,206.69 62.00,208.48 C84.36,210.44 90.93,211.92 107.85,218.85 C115.22,221.87 116.69,222.69 115.92,223.36 ZM 450.21 221.93 C445.52,223.51 440.83,224.13 431.71,224.36 C412.82,224.86 379.00,224.06 379.00,223.11 C379.00,221.64 392.58,216.13 403.75,213.05 C411.42,210.94 419.66,209.63 432.50,208.48 C453.29,206.61 466.67,203.98 473.26,200.48 C475.80,199.12 478.13,198.41 478.43,198.89 C478.73,199.37 476.56,202.79 473.62,206.49 C467.74,213.86 461.00,218.31 450.21,221.93 ZM 211.00 109.18 C211.00,110.83 208.40,109.89 204.27,106.73 C199.12,102.79 195.78,96.38 195.19,89.30 C194.66,82.94 195.53,82.66 203.35,86.57 C211.34,90.57 214.58,94.43 216.53,102.25 C217.40,105.73 216.08,105.78 212.08,102.42 C207.92,98.91 206.76,99.69 209.08,104.43 C210.14,106.59 211.00,108.73 211.00,109.18 ZM 185.61 118.50 C187.09,124.58 179.74,118.72 177.07,111.68 C175.73,108.17 175.66,95.33 176.97,94.52 C179.68,92.85 189.50,101.92 191.94,108.35 C193.16,111.55 193.36,118.00 192.25,118.00 C191.84,118.00 190.24,116.42 188.71,114.50 C185.41,110.37 183.52,109.93 184.39,113.50 ZM 284.22 105.84 C280.25,108.67 278.59,108.64 279.39,105.75 C279.73,104.51 280.30,102.42 280.65,101.10 L 281.29 98.71 L 277.16 101.03 C272.62,103.58 271.46,103.28 272.35,99.80 C273.85,93.92 285.15,85.00 291.09,85.00 C293.08,85.00 293.20,85.35 292.58,89.25 C291.57,95.61 287.65,103.40 284.22,105.84 ZM 302.87 117.82 C299.37,121.57 297.49,121.96 298.41,118.75 C300.16,112.60 300.24,111.00 298.81,111.00 C298.02,111.00 296.38,112.35 295.16,114.00 C292.29,117.88 291.00,117.80 291.01,113.75 C291.03,107.04 301.15,94.31 305.77,95.19 C307.11,95.44 307.57,96.75 307.81,101.01 C308.22,108.19 306.54,113.89 302.87,117.82 ZM 195.00 161.65 C195.00,163.29 194.54,163.28 189.64,161.54 C183.49,159.34 177.00,152.10 177.00,147.43 C177.00,146.01 177.89,145.82 182.99,146.19 C187.67,146.53 189.91,147.30 193.24,149.71 C195.58,151.40 197.66,153.58 197.85,154.54 C198.15,156.03 197.67,156.21 194.60,155.71 C190.54,155.05 190.08,155.85 193.00,158.50 C194.10,159.50 195.00,160.92 195.00,161.65 ZM 302.91 159.23 C301.49,160.28 298.34,161.41 295.91,161.73 L 291.50 162.31 L 294.75 159.25 C296.54,157.57 298.00,155.87 298.00,155.47 C298.00,155.07 296.17,154.98 293.94,155.28 C288.66,155.99 288.90,153.95 294.58,149.84 C299.73,146.11 309.54,144.64 310.61,147.44 C311.38,149.42 306.90,156.27 302.91,159.23 ZM 208.59 196.85 C207.70,198.30 207.29,198.26 203.00,196.41 C196.72,193.68 190.12,185.73 191.40,182.41 C192.70,179.00 204.02,181.73 209.21,186.71 C212.57,189.92 212.03,191.04 207.48,190.30 C203.28,189.62 202.93,191.06 206.65,193.77 C208.18,194.88 209.00,196.18 208.59,196.85 ZM 288.02 194.54 C283.18,197.65 280.00,198.52 280.00,196.72 C280.00,195.95 280.90,194.50 282.00,193.50 C284.95,190.83 284.45,189.73 280.50,190.19 C277.83,190.50 277.00,190.23 277.01,189.05 C277.03,184.35 295.05,178.36 296.65,182.53 C297.45,184.62 292.31,191.78 288.02,194.54 ZM 259.02 180.25 C259.00,181.18 257.56,181.23 256.67,180.33 C255.25,178.92 256.01,167.80 257.72,164.90 C260.01,161.03 261.58,161.24 263.84,165.75 C266.42,170.92 267.15,175.49 265.90,178.75 L 264.84 181.50 L 262.85 179.05 C261.21,177.04 260.70,176.86 259.95,178.05 C259.44,178.85 259.02,179.84 259.02,180.25 ZM 224.71 179.00 C223.91,182.05 222.30,181.39 221.61,177.74 C220.63,172.50 224.56,162.00 227.51,162.00 C230.59,162.00 233.34,174.34 231.39,179.42 C230.56,181.59 229.26,181.40 228.50,179.00 C228.15,177.90 227.27,177.00 226.55,177.00 C225.83,177.00 225.00,177.90 224.71,179.00 ZM 204.50 136.00 C203.62,138.77 202.14,138.50 200.94,135.35 C199.16,130.65 204.04,119.04 207.29,120.28 C209.69,121.20 212.48,131.05 211.32,134.53 C210.14,138.07 208.38,138.77 207.52,136.06 C206.69,133.44 205.32,133.42 204.50,136.00 ZM 280.60 134.46 C279.26,132.64 279.12,132.72 277.72,136.02 C276.38,139.18 276.16,139.31 275.37,137.50 C272.95,131.94 275.88,119.15 279.31,120.26 C282.96,121.44 286.41,137.65 283.25,138.74 C282.56,138.97 282.00,138.54 282.00,137.77 C282.00,137.01 281.37,135.52 280.60,134.46 ZM 261.68 151.94 C258.25,153.23 257.28,153.26 256.56,152.10 C256.26,151.61 256.68,150.95 257.51,150.64 C259.44,149.89 259.44,148.00 257.50,148.00 C255.23,148.00 255.70,145.24 258.25,143.61 C261.87,141.29 271.00,141.08 271.00,143.30 C271.00,145.15 265.04,150.67 261.68,151.94 ZM 260.97 112.50 C261.73,115.10 261.82,117.36 261.23,118.94 C260.35,121.28 260.27,121.30 259.22,119.44 C258.34,117.89 257.87,117.75 256.86,118.75 C254.90,120.69 254.27,120.27 253.58,116.55 C252.91,112.98 255.06,106.00 256.83,106.00 C258.31,106.00 259.70,108.19 260.97,112.50 ZM 232.58 150.09 C234.24,151.92 234.21,152.00 231.90,151.97 C228.90,151.93 226.31,150.46 223.36,147.10 C219.98,143.28 220.38,142.00 224.92,142.00 C228.58,142.00 234.98,144.66 234.99,146.18 C235.00,146.56 234.07,147.16 232.93,147.52 C230.95,148.15 230.94,148.27 232.58,150.09 ZM 234.00 114.80 C234.00,118.72 233.99,118.73 230.00,118.73 C226.25,118.73 226.00,118.55 226.00,115.81 C226.00,112.12 228.61,107.00 230.49,107.00 C232.54,107.00 234.00,110.23 234.00,114.80 ZM 200.96 146.25 C200.98,146.66 200.60,147.00 200.12,147.00 C199.27,147.00 198.00,143.62 198.05,141.50 C198.07,140.41 200.91,145.03 200.96,146.25 ZM 242.61 440.42 C242.94,441.29 242.76,442.00 242.21,442.00 C240.74,442.00 240.05,439.53 241.08,437.91 C241.62,437.04 241.98,436.95 241.98,437.67 C241.99,438.31 242.27,439.55 242.61,440.42 Z" fill="rgb(21,123,78)" data-index="0"></path>
<path d="M 258.63 481.37 C253.61,485.38 248.99,488.96 248.37,489.32 C244.64,491.48 212.45,462.09 203.00,447.90 C192.59,432.26 180.92,406.79 176.70,390.50 C172.92,375.94 169.60,345.96 171.62,344.75 C172.11,344.46 176.10,344.59 180.50,345.03 C201.70,347.16 217.26,348.93 217.57,349.23 C217.75,349.42 218.41,353.83 219.01,359.04 C222.80,391.36 230.91,423.14 238.52,435.50 C240.59,438.85 240.99,439.13 240.99,437.22 C241.00,435.96 240.11,432.29 239.02,429.06 C233.10,411.47 228.08,388.64 225.99,369.75 C225.52,365.49 224.85,361.10 224.50,360.00 C223.59,357.13 225.46,357.53 226.82,360.50 C227.44,361.88 228.38,363.00 228.91,363.00 C230.32,363.00 233.97,358.01 234.52,355.34 C235.28,351.65 235.42,349.80 236.42,348.88 C237.43,347.94 239.31,347.96 243.58,347.99 C244.43,347.99 245.38,348.00 246.44,348.00 L 256.84 348.00 L 258.48 352.94 C260.13,357.90 263.42,363.00 264.97,363.00 C265.43,363.00 266.30,361.58 266.91,359.84 C269.00,353.82 268.90,357.65 266.50,374.37 C263.59,394.69 262.09,401.78 256.33,422.36 C253.88,431.08 252.11,438.44 252.38,438.71 C253.11,439.45 259.75,425.86 262.40,418.19 C267.34,403.89 269.10,395.91 273.12,369.56 C274.80,358.53 276.24,349.47 276.34,349.44 C277.59,348.96 314.65,344.98 317.75,344.99 L 322.00 345.00 L 322.00 352.01 C322.00,364.34 318.04,386.78 313.54,400.00 C301.92,434.08 283.31,461.66 258.63,481.37 ZM 242.61 440.42 C242.27,439.55 241.99,438.31 241.98,437.67 C241.98,436.95 241.62,437.04 241.08,437.91 C240.05,439.53 240.74,442.00 242.21,442.00 C242.76,442.00 242.94,441.29 242.61,440.42 Z" fill="rgb(49,40,36)" data-index="1"></path>
<path d="M 234.05 319.90 C231.90,310.52 229.64,302.19 227.13,294.60 C229.89,302.68 232.29,311.30 234.33,320.50 L 235.66 326.50 L 236.30 317.00 C237.15,304.40 238.38,257.35 238.10,248.50 C237.91,242.57 236.98,239.29 232.00,227.00 C206.71,164.60 201.22,151.17 200.59,150.15 C200.20,149.52 200.14,148.59 200.45,148.09 C200.70,147.68 200.64,147.23 200.33,146.98 C200.71,146.89 200.98,146.60 200.96,146.25 C200.96,146.13 200.93,145.98 200.87,145.81 C205.63,154.80 216.07,175.18 226.95,196.75 C233.12,209.00 238.53,218.79 238.95,218.53 C239.38,218.26 240.06,202.37 240.47,183.21 L 241.20 148.37 L 235.60 140.15 C229.76,131.57 228.00,127.15 232.75,133.00 C238.19,139.69 241.27,143.06 241.63,142.70 C241.99,142.34 245.00,104.47 245.00,100.19 C245.00,98.92 245.38,98.12 245.84,98.40 C246.30,98.69 247.27,107.83 247.99,118.71 C248.71,129.59 249.59,139.30 249.94,140.29 C250.44,141.70 251.39,140.81 254.48,136.04 C257.88,130.77 260.00,128.68 260.00,130.57 C260.00,130.88 257.71,135.43 254.91,140.66 L 249.83 150.19 L 251.48 182.18 C252.39,199.78 253.40,214.88 253.73,215.75 C254.08,216.66 260.46,201.85 269.12,180.01 C282.29,146.77 285.99,138.34 286.00,141.55 C286.01,142.07 285.34,144.52 284.52,147.00 C283.70,149.48 281.40,156.90 279.42,163.50 C277.44,170.10 274.76,178.88 273.47,183.00 C272.17,187.12 269.70,195.23 267.98,201.00 C263.34,216.48 261.44,222.60 258.50,231.50 C253.98,245.19 253.94,245.66 254.98,271.75 C255.53,285.36 255.98,304.01 255.99,313.19 C255.99,322.37 256.41,330.14 256.92,330.45 C257.58,330.86 258.35,329.54 259.13,326.78 C258.39,329.46 257.66,331.00 257.06,331.00 C256.63,331.00 256.49,332.12 256.76,333.50 C257.13,335.48 257.57,336.23 258.33,335.61 C258.10,335.86 257.92,336.00 257.80,336.00 C256.18,336.00 257.00,348.97 258.95,354.10 C259.63,355.90 260.42,357.56 261.22,358.95 C260.18,357.19 259.18,355.06 258.48,352.94 L 256.84 348.00 L 246.44 348.00 C245.38,348.00 244.43,347.99 243.58,347.99 C239.31,347.96 237.43,347.94 236.42,348.88 C235.42,349.80 235.28,351.65 234.52,355.34 C233.97,358.01 230.32,363.00 228.91,363.00 C228.59,363.00 228.11,362.58 227.65,361.94 C228.89,363.48 230.35,362.57 232.75,359.03 C234.73,356.10 235.00,354.44 235.00,345.19 L 235.00 334.67 L 232.17 329.88 C234.43,333.54 234.70,333.19 235.24,331.12 C235.70,329.36 235.25,325.14 234.05,319.90 ZM 199.64 244.07 C196.28,240.21 191.68,235.42 187.64,231.49 C187.79,231.63 187.94,231.76 188.09,231.91 C192.19,235.71 196.04,239.75 199.64,244.07 ZM 181.64 260.72 C165.37,243.97 148.46,231.26 130.50,222.22 C148.60,231.33 165.35,243.89 181.64,260.72 ZM 198.84 142.02 C198.45,141.50 198.14,141.21 198.07,141.39 C198.05,141.03 198.10,140.88 198.22,141.00 C198.29,141.07 198.50,141.42 198.84,142.02 ZM 225.79 319.14 C221.48,312.00 217.09,305.03 214.77,301.66 C214.32,301.01 213.87,300.36 213.42,299.72 C213.87,300.36 214.32,301.01 214.78,301.66 C216.91,304.73 221.59,312.17 225.79,319.14 ZM 265.00 363.00 C264.99,363.00 264.98,363.00 264.97,363.00 C264.64,363.00 264.22,362.76 263.75,362.33 C264.22,362.74 264.64,362.98 265.00,363.00 ZM 224.76 358.05 C224.27,357.98 224.06,358.61 224.50,360.00 C224.05,358.59 224.27,357.97 224.76,358.05 Z" fill="rgb(159,64,8)" data-index="2"></path>

</g>
</svg>